<svg version="1.1" id="Layer_1" xmlns="http://www.w3.org/2000/svg" xmlns:xlink="http://www.w3.org/1999/xlink" x="0px" y="0px" width="400.156px" height="59px" viewBox="0 0 400.156 59" enable-background="new 0 0 400.156 59">
<title>manspeaker.com</title>
<g enable-background="new">
	<polygon fill="#38A4DD" points="38.031,35.689 32.036,41.699 32.767,23.366 38.762,17.356 	"/>
	<polygon fill="#38A4DD" points="27.062,35.426 21.066,41.436 29.189,9.612 35.183,3.602 	"/>
	<polygon fill="#0277BD" points="47.001,47.602 41.005,53.611 32.095,53.611 38.09,47.602 	"/>
	<polygon fill="#38A4DD" points="38.09,47.602 32.095,53.611 32.036,41.699 38.031,35.689 	"/>
	<polygon fill="#0277BD" points="30.107,47.602 24.111,53.611 18.078,53.611 24.073,47.602 	"/>
	<polygon fill="#38A4DD" points="24.073,47.602 18.078,53.611 9.128,23.366 15.123,17.356 	"/>
	<polygon fill="#0277BD" points="16.09,47.602 10.095,53.611 1.214,53.611 7.21,47.602 	"/>
	<polygon fill="#38A4DD" points="7.21,47.602 1.214,53.611 1,9.612 6.996,3.602 	"/>
	<polygon fill="#84D2F6" points="46.787,3.602 47.001,47.602 38.09,47.602 38.031,35.689 38.762,17.356 30.107,47.602
		24.073,47.602 15.123,17.356 16.032,35.689 16.09,47.602 7.21,47.602 6.996,3.602 18.598,3.602 27.062,35.426 35.183,3.602 	"/>
</g>
<g enable-background="new    ">
	<polygon fill="#1B87C9" points="75.121,31.188 69.126,37.198 64.934,21.526 70.929,15.516 	"/>
	<polygon fill="#0277BD" points="89.001,47.602 83.006,53.611 73.522,53.611 79.518,47.602 	"/>
	<polygon fill="#38A4DD" points="79.518,47.602 73.522,53.611 71.127,44.607 77.122,38.6 	"/>
	<polygon fill="#00579B" points="77.122,38.6 71.127,44.607 58.998,44.607 64.993,38.6 	"/>
	<polygon fill="#00579B" points="62.686,47.602 56.69,53.611 47.3,53.611 53.294,47.602 	"/>
	<polygon fill="#38A4DD" points="53.294,47.602 47.3,53.611 60.823,9.612 66.818,3.602 	"/>
	<path fill="#B5E4FA" d="M74.956,3.602l14.045,44h-9.483L77.122,38.6H64.993l-2.308,9.002h-9.391l13.523-44H74.956z M66.891,31.188
		h8.23l-4.192-15.671L66.891,31.188"/>
</g>
<g enable-background="new    ">
	<polygon fill="#38A4DD" points="118.143,32.486 112.147,38.498 112.007,9.612 118.001,3.602 	"/>
	<polygon fill="#00579B" points="127.065,47.602 121.069,53.611 112.19,53.611 118.186,47.602 	"/>
	<polygon fill="#38A4DD" points="118.186,47.602 112.19,53.611 99.053,24.758 105.049,18.748 	"/>
	<polygon fill="#CFEDF8" points="126.851,3.602 127.065,47.602 118.186,47.602 105.049,18.748 105.19,47.602 96.31,47.602
		96.095,3.602 104.975,3.602 118.143,32.486 118.001,3.602 	"/>
	<polygon fill="#00579B" points="105.19,47.602 99.194,53.611 90.314,53.611 96.31,47.602 	"/>
	<polygon fill="#38A4DD" points="96.31,47.602 90.314,53.611 90.099,9.612 96.095,3.602 	"/>
</g>
<g enable-background="new    ">
	<g enable-background="new    ">
		<g>
			<defs>
				<path id="SVGID_1_" d="M155.939,16.599l-5.995,6.01c-0.005-0.929-0.102-1.778-0.292-2.552l5.995-6.011
					C155.836,14.819,155.934,15.67,155.939,16.599z"/>
			</defs>
			<clipPath id="SVGID_2_">
				<use xlink:href="#SVGID_1_"  overflow="visible"/>
			</clipPath>
			<g clip-path="url(#SVGID_2_)">
				<path fill="#38A4DD" d="M155.939,16.599l-5.995,6.01c-0.005-0.929-0.102-1.778-0.292-2.552l5.995-6.011
					C155.836,14.819,155.934,15.67,155.939,16.599"/>
			</g>
		</g>
	</g>
	<polygon fill="#0277BD" points="164.788,16.599 158.793,22.608 149.944,22.608 155.939,16.599 	"/>
	<g enable-background="new    ">
		<g>
			<defs>
				<path id="SVGID_3_" d="M141.284,17.569l5.996-6.01c0.368-0.37,0.814-0.662,1.328-0.886c0.618-0.264,1.344-0.387,2.195-0.387
					c0.913,0,1.688,0.154,2.323,0.464c0.651,0.31,1.179,0.742,1.6,1.3c0.421,0.557,0.717,1.221,0.922,1.995l-5.995,6.011
					c-0.205-0.774-0.502-1.439-0.923-1.997c-0.419-0.557-0.948-0.989-1.6-1.298c-0.636-0.31-1.41-0.465-2.323-0.465
					c-0.852,0-1.578,0.125-2.194,0.387C142.098,16.907,141.652,17.2,141.284,17.569z"/>
			</defs>
			<clipPath id="SVGID_4_">
				<use xlink:href="#SVGID_3_"  overflow="visible"/>
			</clipPath>
			<g clip-path="url(#SVGID_4_)">
				<path fill="#1B87C9" d="M155.647,14.045l-5.995,6.011c-0.205-0.774-0.502-1.439-0.923-1.997c-0.419-0.557-0.948-0.989-1.6-1.298
					c-0.636-0.31-1.41-0.465-2.323-0.465c-0.852,0-1.578,0.125-2.194,0.387c-0.515,0.224-0.961,0.517-1.329,0.886l5.996-6.01
					c0.368-0.37,0.814-0.662,1.328-0.886c0.618-0.264,1.344-0.387,2.195-0.387c0.913,0,1.688,0.154,2.323,0.464
					c0.651,0.31,1.179,0.742,1.6,1.3C155.146,12.607,155.442,13.271,155.647,14.045"/>
			</g>
		</g>
	</g>
	<g enable-background="new    ">
		<g>
			<defs>
				<path id="SVGID_5_" d="M155.688,38.025l-5.996,6.01c0.151-0.604,0.226-1.27,0.222-1.965c-0.003-0.774-0.069-1.455-0.21-2.059
					l5.995-6.01c0.141,0.604,0.207,1.284,0.21,2.059C155.914,36.757,155.839,37.422,155.688,38.025z"/>
			</defs>
			<clipPath id="SVGID_6_">
				<use xlink:href="#SVGID_5_"  overflow="visible"/>
			</clipPath>
			<g clip-path="url(#SVGID_6_)">
				<path fill="#38A4DD" d="M155.688,38.025l-5.996,6.01c0.151-0.604,0.226-1.27,0.222-1.965c-0.003-0.774-0.069-1.455-0.21-2.059
					l5.995-6.01c0.141,0.604,0.207,1.284,0.21,2.059C155.914,36.757,155.839,37.422,155.688,38.025"/>
			</g>
		</g>
	</g>
	<g enable-background="new    ">
		<g>
			<defs>
				<path id="SVGID_7_" d="M134.288,12.956l5.996-6.01c-0.947,0.949-1.7,2.052-2.26,3.326c-0.674,1.516-1.022,3.203-1.012,5.028
					c0.009,1.919,0.358,3.589,1.045,5.028c0.672,1.439,1.591,2.708,2.741,3.807c1.134,1.097,2.455,2.057,3.959,2.861
					c1.504,0.804,3.086,1.516,4.744,2.15c1.395,0.557,2.512,1.083,3.35,1.593s1.49,1.021,1.941,1.562
					c0.451,0.525,0.748,1.099,0.906,1.702l-5.995,6.01c-0.158-0.603-0.455-1.176-0.906-1.701c-0.452-0.541-1.103-1.053-1.941-1.562
					s-1.956-1.036-3.35-1.593c-1.658-0.636-3.239-1.347-4.744-2.15c-1.505-0.805-2.825-1.764-3.96-2.862
					c-1.149-1.098-2.069-2.367-2.741-3.807c-0.687-1.438-1.037-3.109-1.045-5.028c-0.009-1.825,0.339-3.511,1.012-5.027
					C132.588,15.007,133.341,13.904,134.288,12.956z"/>
			</defs>
			<clipPath id="SVGID_8_">
				<use xlink:href="#SVGID_7_"  overflow="visible"/>
			</clipPath>
			<g clip-path="url(#SVGID_8_)">
				<path fill="#38A4DD" d="M155.699,34.003l-5.995,6.011c-0.158-0.604-0.455-1.177-0.906-1.701
					c-0.452-0.541-1.103-1.054-1.941-1.563s-1.956-1.036-3.35-1.593c-1.658-0.635-3.239-1.346-4.744-2.15
					c-1.505-0.805-2.825-1.764-3.96-2.861c-1.149-1.099-2.069-2.368-2.741-3.808c-0.687-1.438-1.037-3.109-1.045-5.028
					c-0.009-1.825,0.339-3.511,1.012-5.027c0.561-1.274,1.313-2.377,2.26-3.326l5.996-6.01c-0.947,0.949-1.7,2.052-2.26,3.326
					c-0.674,1.516-1.022,3.203-1.012,5.028c0.009,1.919,0.358,3.589,1.045,5.028c0.672,1.439,1.591,2.708,2.741,3.807
					c1.134,1.097,2.455,2.057,3.959,2.861c1.504,0.804,3.086,1.516,4.744,2.15c1.395,0.557,2.512,1.083,3.35,1.593
					s1.49,1.021,1.941,1.562C155.244,32.827,155.541,33.398,155.699,34.003"/>
			</g>
		</g>
	</g>
	<g enable-background="new    ">
		<g>
			<defs>
				<path id="SVGID_9_" d="M154.708,39.77l-5.994,6.011c0.063-0.063,0.124-0.13,0.181-0.197c0.371-0.433,0.63-0.944,0.798-1.547
					l5.996-6.011c-0.167,0.604-0.428,1.115-0.798,1.548C154.832,39.641,154.773,39.706,154.708,39.77z"/>
			</defs>
			<clipPath id="SVGID_10_">
				<use xlink:href="#SVGID_9_"  overflow="visible"/>
			</clipPath>
			<g clip-path="url(#SVGID_10_)" enable-background="new    ">
				<path fill="#6C8A9A" d="M154.708,39.77l-5.994,6.011c0.063-0.063,0.124-0.13,0.181-0.197c0.371-0.433,0.63-0.944,0.798-1.547
					l5.996-6.011c-0.167,0.604-0.428,1.115-0.798,1.548C154.832,39.641,154.773,39.706,154.708,39.77"/>
			</g>
		</g>
	</g>
	<g enable-background="new    ">
		<g>
			<defs>
				<path id="SVGID_11_" d="M161.696,44.548l-5.996,6.011c-0.151,0.15-0.306,0.297-0.466,0.438c-1.17,1.036-2.589,1.825-4.258,2.383
					c-1.667,0.558-3.554,0.835-5.658,0.835c-1.888,0-3.745-0.294-5.574-0.865c-1.828-0.574-3.457-1.457-4.886-2.646
					c-1.445-1.176-2.597-2.678-3.487-4.502c-0.891-1.809-1.334-3.959-1.347-6.467l5.996-6.01c0.012,2.506,0.456,4.656,1.348,6.467
					c0.89,1.826,2.042,3.326,3.486,4.502c1.429,1.191,3.059,2.074,4.887,2.646c1.828,0.573,3.686,0.867,5.574,0.867
					c2.104,0,3.989-0.278,5.657-0.835c1.668-0.557,3.088-1.346,4.259-2.383C161.389,44.845,161.545,44.699,161.696,44.548z"/>
			</defs>
			<clipPath id="SVGID_12_">
				<use xlink:href="#SVGID_11_"  overflow="visible"/>
			</clipPath>
			<g clip-path="url(#SVGID_12_)">
				<path fill="#0277BD" d="M161.696,44.548l-5.996,6.011c-0.151,0.15-0.306,0.297-0.466,0.438c-1.17,1.036-2.589,1.825-4.258,2.383
					c-1.667,0.558-3.554,0.835-5.658,0.835c-1.888,0-3.745-0.294-5.574-0.865c-1.828-0.574-3.457-1.457-4.886-2.646
					c-1.445-1.176-2.597-2.678-3.487-4.502c-0.891-1.809-1.334-3.959-1.347-6.467l5.996-6.01c0.012,2.506,0.456,4.656,1.348,6.467
					c0.89,1.826,2.042,3.326,3.486,4.502c1.429,1.191,3.059,2.074,4.887,2.646c1.828,0.573,3.686,0.867,5.574,0.867
					c2.104,0,3.989-0.278,5.657-0.835c1.668-0.557,3.088-1.346,4.259-2.383C161.389,44.845,161.545,44.699,161.696,44.548"/>
			</g>
		</g>
	</g>
	<path fill="#84D2F6" d="M150.921,3c2.105,0,4.024,0.339,5.729,1.021c1.706,0.666,3.164,1.609,4.362,2.8
		c1.211,1.207,2.132,2.63,2.79,4.287c0.658,1.67,0.976,3.496,0.986,5.492h-8.85c-0.004-0.929-0.102-1.779-0.292-2.553
		c-0.205-0.774-0.501-1.438-0.922-1.995c-0.42-0.558-0.949-0.99-1.6-1.3c-0.635-0.311-1.41-0.464-2.323-0.464
		c-0.852,0-1.578,0.124-2.195,0.387c-0.602,0.263-1.111,0.618-1.511,1.083c-0.4,0.448-0.706,0.99-0.905,1.609
		c-0.198,0.618-0.288,1.284-0.284,1.995c0.004,0.728,0.161,1.377,0.473,1.966c0.313,0.587,0.764,1.128,1.339,1.624
		c0.575,0.51,1.273,0.974,2.095,1.424c0.807,0.447,1.722,0.881,2.699,1.298c2.061,0.743,3.86,1.578,5.396,2.476
		c1.535,0.913,2.824,1.934,3.851,3.079c1.043,1.16,1.807,2.444,2.324,3.882c0.502,1.455,0.758,3.08,0.767,4.889
		c0.009,1.936-0.292,3.652-0.918,5.167c-0.626,1.517-1.534,2.785-2.704,3.822c-1.171,1.036-2.591,1.825-4.259,2.383
		s-3.554,0.835-5.657,0.835c-1.888,0-3.746-0.293-5.574-0.867c-1.828-0.572-3.458-1.454-4.887-2.646
		c-1.444-1.176-2.596-2.676-3.486-4.502c-0.892-1.81-1.336-3.959-1.348-6.465h8.911c0.007,1.33,0.151,2.459,0.419,3.387
		c0.267,0.928,0.657,1.687,1.201,2.258c0.53,0.572,1.197,0.977,1.988,1.238c0.79,0.248,1.703,0.371,2.739,0.371
		c0.851,0,1.577-0.123,2.164-0.371c0.603-0.262,1.081-0.604,1.449-1.036c0.37-0.433,0.63-0.944,0.798-1.548
		c0.151-0.603,0.226-1.269,0.222-1.965c-0.004-0.773-0.069-1.455-0.21-2.058c-0.158-0.604-0.455-1.176-0.906-1.702
		c-0.452-0.541-1.104-1.052-1.941-1.562c-0.838-0.51-1.955-1.036-3.35-1.593c-1.658-0.634-3.239-1.346-4.744-2.15
		c-1.505-0.804-2.825-1.764-3.959-2.861c-1.15-1.099-2.069-2.367-2.741-3.807c-0.687-1.439-1.036-3.109-1.045-5.028
		c-0.01-1.825,0.338-3.512,1.012-5.028c0.672-1.532,1.626-2.816,2.859-3.884c1.232-1.068,2.697-1.902,4.412-2.49
		C146.994,3.294,148.864,3,150.921,3z"/>
</g>
<g enable-background="new    ">
	<g enable-background="new    ">
		<g>
			<defs>
				<path id="SVGID_13_" d="M193.863,20.837l-5.996,6.01c0.197-0.789,0.302-1.656,0.297-2.614c-0.005-0.944-0.118-1.842-0.323-2.708
					c-0.205-0.867-0.519-1.64-0.955-2.305c-0.437-0.667-0.996-1.192-1.679-1.595c-0.667-0.402-1.472-0.603-2.399-0.603l5.995-6.01
					c0.929,0,1.734,0.202,2.401,0.603c0.683,0.403,1.242,0.929,1.679,1.594s0.749,1.439,0.955,2.306
					c0.205,0.866,0.318,1.764,0.323,2.708C194.164,19.181,194.061,20.049,193.863,20.837z"/>
			</defs>
			<clipPath id="SVGID_14_">
				<use xlink:href="#SVGID_13_"  overflow="visible"/>
			</clipPath>
			<g clip-path="url(#SVGID_14_)">
				<path fill="#38A4DD" d="M193.863,20.837l-5.996,6.01c0.197-0.789,0.302-1.656,0.297-2.614c-0.005-0.944-0.118-1.842-0.323-2.708
					c-0.205-0.867-0.519-1.64-0.955-2.305c-0.437-0.667-0.996-1.192-1.679-1.595c-0.667-0.402-1.472-0.603-2.399-0.603l5.995-6.01
					c0.929,0,1.734,0.202,2.401,0.603c0.683,0.403,1.242,0.929,1.679,1.594s0.749,1.439,0.955,2.306
					c0.205,0.866,0.318,1.764,0.323,2.708C194.164,19.181,194.061,20.049,193.863,20.837"/>
			</g>
		</g>
	</g>
	<polygon fill="#1B87C9" points="188.802,11.013 182.808,17.023 176.696,17.023 182.691,11.013 	"/>
	<g enable-background="new    ">
		<g>
			<defs>
				<path id="SVGID_15_" d="M192.533,23.352l-5.996,6.01c0.142-0.142,0.274-0.295,0.397-0.458c0.429-0.572,0.736-1.253,0.933-2.057
					l5.996-6.01c-0.197,0.805-0.503,1.485-0.934,2.057C192.807,23.057,192.675,23.21,192.533,23.352z"/>
			</defs>
			<clipPath id="SVGID_16_">
				<use xlink:href="#SVGID_15_"  overflow="visible"/>
			</clipPath>
			<g clip-path="url(#SVGID_16_)">
				<path fill="#38A4DD" d="M192.533,23.352l-5.996,6.01c0.142-0.142,0.274-0.295,0.397-0.458c0.429-0.572,0.736-1.253,0.933-2.057
					l5.996-6.01c-0.197,0.805-0.503,1.485-0.934,2.057C192.807,23.057,192.675,23.21,192.533,23.352"/>
			</g>
		</g>
	</g>
	<g enable-background="new    ">
		<g>
			<defs>
				<path id="SVGID_17_" d="M199.418,28.313l-5.995,6.01c-0.015,0.014-0.03,0.028-0.043,0.042c-1.232,1.207-2.728,2.135-4.488,2.785
					c-1.776,0.664-3.771,0.99-5.982,0.99l5.996-6.011c2.211,0,4.207-0.325,5.982-0.991c1.76-0.649,3.257-1.578,4.486-2.784
					C199.39,28.342,199.405,28.327,199.418,28.313z"/>
			</defs>
			<clipPath id="SVGID_18_">
				<use xlink:href="#SVGID_17_"  overflow="visible"/>
			</clipPath>
			<g clip-path="url(#SVGID_18_)">
				<path fill="#00579B" d="M199.418,28.313l-5.995,6.01c-0.015,0.014-0.03,0.028-0.043,0.042c-1.232,1.207-2.728,2.135-4.488,2.785
					c-1.776,0.664-3.771,0.99-5.982,0.99l5.996-6.011c2.211,0,4.207-0.325,5.982-0.991c1.76-0.649,3.257-1.578,4.486-2.784
					C199.39,28.342,199.405,28.327,199.418,28.313"/>
			</g>
		</g>
	</g>
	<polygon fill="#00579B" points="188.906,32.131 182.911,38.143 176.799,38.143 182.794,32.131 	"/>
	<polygon fill="#38A4DD" points="173.99,47.602 167.994,53.611 167.779,9.612 173.775,3.602 	"/>
	<polygon fill="#0277BD" points="182.87,47.602 176.874,53.611 167.994,53.611 173.99,47.602 	"/>
	<path fill="#B5E4FA" d="M202.113,12.359c0.675,1.78,1.009,3.713,1.019,5.817c0.012,2.136-0.303,4.054-0.961,5.786
		c-0.642,1.717-1.578,3.188-2.795,4.394c-1.229,1.207-2.727,2.134-4.486,2.785c-1.775,0.666-3.771,0.99-5.982,0.99h-6.112
		l0.076,15.471h-8.88l-0.214-44h14.991c2.243,0,4.24,0.372,6.007,1.084c1.767,0.727,3.258,1.748,4.501,3.048
		C200.504,9.034,201.456,10.564,202.113,12.359z M193.863,20.837c0.198-0.788,0.301-1.656,0.297-2.614
		c-0.005-0.944-0.118-1.842-0.323-2.708c-0.206-0.867-0.518-1.641-0.955-2.306s-0.996-1.191-1.679-1.594
		c-0.667-0.401-1.472-0.603-2.401-0.603h-6.111l0.067,13.707h6.111c0.927,0,1.731-0.155,2.395-0.479
		c0.679-0.325,1.234-0.773,1.664-1.346C193.36,22.323,193.666,21.642,193.863,20.837"/>
</g>
<g enable-background="new    ">
	<polygon fill="#0277BD" points="237.407,11.013 231.413,17.023 215.09,17.023 221.084,11.013 	"/>
	<polygon fill="#0277BD" points="235.002,28.557 229.006,34.566 215.174,34.566 221.17,28.557 	"/>
	<polygon fill="#D5EFF8" points="237.372,3.602 237.407,11.013 221.084,11.013 221.135,21.41 234.967,21.41 235.002,28.557
		221.17,28.557 221.227,40.223 237.597,40.223 237.633,47.602 212.383,47.602 212.17,3.602 	"/>
	<polygon fill="#0277BD" points="237.633,47.602 231.637,53.611 206.389,53.611 212.383,47.602 	"/>
	<polygon fill="#38A4DD" points="212.383,47.602 206.389,53.611 206.174,9.612 212.17,3.602 	"/>
</g>
<g enable-background="new    ">
	<polygon fill="#38A4DD" points="264.883,31.188 258.887,37.198 254.696,21.526 260.692,15.516 	"/>
	<polygon fill="#0277BD" points="278.778,47.602 272.784,53.611 263.284,53.611 269.28,47.602 	"/>
	<polygon fill="#38A4DD" points="269.28,47.602 263.284,53.611 260.889,44.607 266.883,38.6 	"/>
	<polygon fill="#00579B" points="266.883,38.6 260.889,44.607 248.775,44.607 254.771,38.6 	"/>
	<polygon fill="#00579B" points="252.448,47.602 246.452,53.611 237.063,53.611 243.058,47.602 	"/>
	<polygon fill="#38A4DD" points="243.058,47.602 237.063,53.611 250.601,9.612 256.596,3.602 	"/>
	<path fill="#B5E4FA" d="M264.717,3.602l14.061,44h-9.498l-2.396-9.002h-12.112l-2.323,9.002h-9.39l13.539-44H264.717z
		 M256.668,31.188h8.215l-4.191-15.671L256.668,31.188"/>
</g>
<g enable-background="new    ">
	<polygon fill="#38A4DD" points="297.624,18.053 291.627,24.062 299.743,9.612 305.737,3.602 	"/>
	<polygon fill="#38A4DD" points="294.833,22.787 288.836,28.797 291.627,24.062 297.624,18.053 	"/>
	<polygon fill="#38A4DD" points="306.508,47.602 300.512,53.611 292.385,36.625 298.381,30.615 	"/>
	<polygon fill="#00579B" points="317.043,47.602 311.049,53.611 300.512,53.611 306.508,47.602 	"/>
	<polygon fill="#0277BD" points="294.952,47.602 288.958,53.611 280.077,53.611 286.071,47.602 	"/>
	<polygon fill="#84D2F6" points="304.114,22.94 317.043,47.602 306.508,47.602 298.381,30.615 294.891,35.023 294.952,47.602
		286.071,47.602 285.857,3.602 294.738,3.602 294.833,22.787 297.624,18.053 305.737,3.602 316.627,3.602 	"/>
	<polygon fill="#38A4DD" points="286.071,47.602 280.077,53.611 279.863,9.612 285.857,3.602 	"/>
</g>
<g enable-background="new    ">
	<polygon fill="#0277BD" points="348.51,11.013 342.514,17.023 326.194,17.023 332.188,11.013 	"/>
	<polygon fill="#00579B" points="346.122,28.557 340.125,34.566 326.278,34.566 332.272,28.557 	"/>
	<polygon fill="#B5E4FA" points="348.473,3.602 348.51,11.013 332.188,11.013 332.239,21.41 346.084,21.41 346.122,28.557
		332.272,28.557 332.331,40.223 348.715,40.223 348.75,47.602 323.487,47.602 323.272,3.602 	"/>
	<polygon fill="#00579B" points="348.75,47.602 342.756,53.611 317.491,53.611 323.487,47.602 	"/>
	<polygon fill="#38A4DD" points="323.487,47.602 317.491,53.611 317.276,9.612 323.272,3.602 	"/>
</g>
<g enable-background="new    ">
	<polygon fill="#1B87C9" points="371.061,11.013 365.065,17.023 359.772,17.023 365.77,11.013 	"/>
	<g enable-background="new    ">
		<g>
			<defs>
				<path id="SVGID_19_" d="M374.86,22.354l-5.996,6.009c0.877-1.176,1.316-2.754,1.309-4.733c-0.006-1.005-0.104-1.919-0.293-2.723
					c-0.203-0.82-0.502-1.517-0.922-2.089c-0.42-0.573-0.951-1.021-1.602-1.331c-0.635-0.31-1.408-0.464-2.293-0.464l5.996-6.01
					c0.885,0,1.656,0.155,2.293,0.464c0.65,0.31,1.18,0.757,1.602,1.331c0.418,0.572,0.717,1.27,0.922,2.089
					c0.189,0.804,0.287,1.718,0.293,2.724C376.176,19.6,375.737,21.178,374.86,22.354z"/>
			</defs>
			<clipPath id="SVGID_20_">
				<use xlink:href="#SVGID_19_"  overflow="visible"/>
			</clipPath>
			<g clip-path="url(#SVGID_20_)" enable-background="new    ">
				<path fill="#38A4DD" d="M374.86,22.354l-5.996,6.009c0.877-1.176,1.316-2.754,1.309-4.733c-0.006-1.005-0.104-1.919-0.293-2.723
					c-0.203-0.82-0.502-1.517-0.922-2.089c-0.42-0.573-0.951-1.021-1.602-1.331c-0.635-0.31-1.408-0.464-2.293-0.464l5.996-6.01
					c0.885,0,1.656,0.155,2.293,0.464c0.65,0.31,1.18,0.757,1.602,1.331c0.418,0.572,0.717,1.27,0.922,2.089
					c0.189,0.804,0.287,1.718,0.293,2.724C376.176,19.6,375.737,21.178,374.86,22.354"/>
			</g>
		</g>
	</g>
	<g enable-background="new    ">
		<g>
			<defs>
				<path id="SVGID_21_" d="M374.458,22.821l-5.996,6.011c0.145-0.145,0.277-0.3,0.402-0.469l5.996-6.009
					C374.735,22.521,374.6,22.678,374.458,22.821z"/>
			</defs>
			<clipPath id="SVGID_22_">
				<use xlink:href="#SVGID_21_"  overflow="visible"/>
			</clipPath>
			<g clip-path="url(#SVGID_22_)" enable-background="new    ">
				<path fill="#6C8A9A" d="M374.458,22.821l-5.996,6.011c0.145-0.145,0.277-0.3,0.402-0.469l5.996-6.009
					C374.735,22.521,374.6,22.678,374.458,22.821"/>
			</g>
		</g>
	</g>
	<g enable-background="new    ">
		<g>
			<defs>
				<path id="SVGID_23_" d="M381.59,27.023l-5.996,6.01c-0.066,0.068-0.139,0.137-0.209,0.203c-0.785,0.759-1.662,1.393-2.65,1.934
					l5.996-6.01c0.986-0.542,1.865-1.176,2.65-1.934C381.452,27.16,381.522,27.092,381.59,27.023z"/>
			</defs>
			<clipPath id="SVGID_24_">
				<use xlink:href="#SVGID_23_"  overflow="visible"/>
			</clipPath>
			<g clip-path="url(#SVGID_24_)">
				<path fill="#B5E4FA" d="M381.59,27.023l-5.996,6.01c-0.066,0.068-0.139,0.137-0.209,0.203c-0.785,0.759-1.662,1.393-2.65,1.934
					l5.996-6.01c0.986-0.542,1.865-1.176,2.65-1.934C381.452,27.16,381.522,27.092,381.59,27.023"/>
			</g>
		</g>
	</g>
	<polygon fill="#00579B" points="370.278,31.527 364.284,37.538 359.875,37.538 365.87,31.527 	"/>
	<polygon fill="#38A4DD" points="376.979,47.602 370.985,53.611 364.284,37.538 370.278,31.527 	"/>
	<polygon fill="#00579B" points="386.524,47.602 380.528,53.611 370.985,53.611 376.979,47.602 	"/>
	<polygon fill="#38A4DD" points="357.069,47.602 351.073,53.611 350.858,9.612 356.854,3.602 	"/>
	<polygon fill="#0277BD" points="365.948,47.602 359.954,53.611 351.073,53.611 357.069,47.602 	"/>
	<path fill="#B5E4FA" d="M378.731,29.161l7.791,18.022l0.004,0.418h-9.547l-6.699-16.074h-4.408l0.078,16.074h-8.881l-0.215-44
		h14.172c2.195,0,4.162,0.295,5.883,0.868c1.721,0.572,3.193,1.422,4.391,2.536c1.211,1.115,2.131,2.506,2.773,4.146
		c0.643,1.656,0.963,3.574,0.973,5.756c0.008,1.578-0.125,3.017-0.412,4.301c-0.289,1.284-0.701,2.413-1.252,3.419
		c-0.553,0.99-1.213,1.856-2,2.599C380.596,27.985,379.717,28.619,378.731,29.161z M374.86,22.354
		c0.877-1.176,1.316-2.754,1.309-4.734c-0.006-1.006-0.104-1.919-0.293-2.724c-0.205-0.819-0.504-1.517-0.922-2.089
		c-0.422-0.573-0.949-1.021-1.602-1.331c-0.637-0.309-1.408-0.464-2.293-0.464h-5.291l0.064,13.104h5.043
		C372.655,24.117,373.981,23.529,374.86,22.354"/>
</g>
</svg>
