<?xml version="1.0" encoding="utf-8"?>
<!-- Generator: Adobe Illustrator 15.1.0, SVG Export Plug-In . SVG Version: 6.00 Build 0)  -->
<!DOCTYPE svg PUBLIC "-//W3C//DTD SVG 1.1//EN" "http://www.w3.org/Graphics/SVG/1.1/DTD/svg11.dtd">
<svg version="1.1" id="Layer_1" xmlns="http://www.w3.org/2000/svg" xmlns:xlink="http://www.w3.org/1999/xlink" x="0px" y="0px"
	 width="400.155px" height="59px" viewBox="0 0 400.155 59" enable-background="new 0 0 400.155 59" xml:space="preserve">
<g>
	<g enable-background="new    ">
		<g>
			<polygon fill="#38A4DD" points="42.612,35.689 36.617,41.699 37.348,23.366 43.343,17.356 			"/>
		</g>
		<g>
			<polygon fill="#38A4DD" points="31.643,35.426 25.647,41.436 33.77,9.612 39.764,3.602 			"/>
		</g>
		<g>
			<polygon fill="#0277BD" points="51.582,47.601 45.586,53.612 36.676,53.612 42.671,47.601 			"/>
		</g>
		<g>
			<polygon fill="#38A4DD" points="42.671,47.601 36.676,53.612 36.617,41.699 42.612,35.689 			"/>
		</g>
		<g>
			<polygon fill="#0277BD" points="34.688,47.601 28.692,53.612 22.659,53.612 28.654,47.601 			"/>
		</g>
		<g>
			<polygon fill="#38A4DD" points="28.654,47.601 22.659,53.612 13.709,23.366 19.704,17.356 			"/>
		</g>
		<g>
			<polygon fill="#0277BD" points="20.671,47.601 14.676,53.612 5.795,53.612 11.791,47.601 			"/>
		</g>
		<g>
			<polygon fill="#38A4DD" points="11.791,47.601 5.795,53.612 5.581,9.612 11.577,3.602 			"/>
		</g>
		<g>
			<polygon fill="#84D2F6" points="51.368,3.602 51.582,47.601 42.671,47.601 42.612,35.689 43.343,17.356 34.688,47.601 
				28.654,47.601 19.704,17.356 20.613,35.689 20.671,47.601 11.791,47.601 11.577,3.602 23.179,3.602 31.643,35.426 39.764,3.602 
							"/>
		</g>
	</g>
</g>
<g>
	<g enable-background="new    ">
		<g>
			<polygon fill="#1B87C9" points="79.702,31.188 73.707,37.198 69.515,21.526 75.51,15.516 			"/>
		</g>
		<g>
			<polygon fill="#0277BD" points="93.582,47.602 87.587,53.612 78.103,53.612 84.099,47.602 			"/>
		</g>
		<g>
			<polygon fill="#38A4DD" points="84.099,47.602 78.103,53.612 75.708,44.608 81.703,38.599 			"/>
		</g>
		<g>
			<polygon fill="#00579B" points="81.703,38.599 75.708,44.608 63.579,44.608 69.574,38.599 			"/>
		</g>
		<g>
			<polygon fill="#00579B" points="67.267,47.602 61.271,53.612 51.881,53.612 57.875,47.602 			"/>
		</g>
		<g>
			<polygon fill="#38A4DD" points="57.875,47.602 51.881,53.612 65.404,9.612 71.399,3.602 			"/>
		</g>
		<g>
			<path fill="#B5E4FA" d="M79.537,3.602l14.045,44h-9.483l-2.396-9.003H69.574l-2.308,9.003h-9.391l13.523-44H79.537z
				 M71.472,31.188h8.23L75.51,15.516L71.472,31.188"/>
		</g>
	</g>
</g>
<g>
	<g enable-background="new    ">
		<g>
			<polygon fill="#38A4DD" points="122.724,32.486 116.728,38.498 116.588,9.612 122.582,3.602 			"/>
		</g>
		<g>
			<polygon fill="#00579B" points="131.646,47.602 125.65,53.612 116.771,53.612 122.767,47.602 			"/>
		</g>
		<g>
			<polygon fill="#38A4DD" points="122.767,47.602 116.771,53.612 103.634,24.758 109.63,18.748 			"/>
		</g>
		<g>
			<polygon fill="#CFEDF8" points="131.432,3.602 131.646,47.602 122.767,47.602 109.63,18.748 109.771,47.602 100.891,47.602 
				100.676,3.602 109.556,3.602 122.724,32.486 122.582,3.602 			"/>
		</g>
		<g>
			<polygon fill="#00579B" points="109.771,47.602 103.775,53.612 94.895,53.612 100.891,47.602 			"/>
		</g>
		<g>
			<polygon fill="#38A4DD" points="100.891,47.602 94.895,53.612 94.68,9.612 100.676,3.602 			"/>
		</g>
	</g>
</g>
<g>
	<g enable-background="new    ">
		<g enable-background="new    ">
			<defs>
				<path id="SVGID_1_" enable-background="new    " d="M160.52,16.599l-5.995,6.01c-0.005-0.929-0.102-1.778-0.292-2.552
					l5.995-6.011C160.417,14.819,160.515,15.67,160.52,16.599z"/>
			</defs>
			<clipPath id="SVGID_2_">
				<use xlink:href="#SVGID_1_"  overflow="visible"/>
			</clipPath>
			<g clip-path="url(#SVGID_2_)">
				<path fill="#38A4DD" d="M160.52,16.599l-5.995,6.01c-0.005-0.929-0.102-1.778-0.292-2.552l5.995-6.011
					C160.417,14.819,160.515,15.67,160.52,16.599"/>
			</g>
		</g>
		<g>
			<polygon fill="#0277BD" points="169.369,16.599 163.374,22.608 154.525,22.608 160.52,16.599 			"/>
		</g>
		<g enable-background="new    ">
			<defs>
				<path id="SVGID_3_" enable-background="new    " d="M145.865,17.569l5.996-6.01c0.368-0.37,0.814-0.662,1.328-0.886
					c0.618-0.264,1.344-0.387,2.195-0.387c0.913,0,1.688,0.154,2.323,0.464c0.651,0.31,1.179,0.742,1.6,1.3
					c0.421,0.557,0.717,1.221,0.922,1.995l-5.995,6.011c-0.205-0.774-0.502-1.439-0.923-1.997c-0.419-0.557-0.948-0.989-1.6-1.298
					c-0.636-0.31-1.41-0.465-2.323-0.465c-0.852,0-1.578,0.125-2.194,0.387C146.679,16.907,146.233,17.2,145.865,17.569z"/>
			</defs>
			<clipPath id="SVGID_4_">
				<use xlink:href="#SVGID_3_"  overflow="visible"/>
			</clipPath>
			<g clip-path="url(#SVGID_4_)">
				<path fill="#1B87C9" d="M160.228,14.045l-5.995,6.011c-0.205-0.774-0.502-1.439-0.923-1.997c-0.419-0.557-0.948-0.989-1.6-1.298
					c-0.636-0.31-1.41-0.465-2.323-0.465c-0.852,0-1.578,0.125-2.194,0.387c-0.515,0.224-0.961,0.517-1.329,0.886l5.996-6.01
					c0.368-0.37,0.814-0.662,1.328-0.886c0.618-0.264,1.344-0.387,2.195-0.387c0.913,0,1.688,0.154,2.323,0.464
					c0.651,0.31,1.179,0.742,1.6,1.3C159.727,12.607,160.023,13.271,160.228,14.045"/>
			</g>
		</g>
		<g enable-background="new    ">
			<defs>
				<path id="SVGID_5_" enable-background="new    " d="M160.269,38.025l-5.996,6.01c0.151-0.604,0.226-1.269,0.222-1.965
					c-0.003-0.774-0.069-1.455-0.21-2.058l5.995-6.01c0.141,0.603,0.207,1.284,0.21,2.058
					C160.495,36.757,160.42,37.422,160.269,38.025z"/>
			</defs>
			<clipPath id="SVGID_6_">
				<use xlink:href="#SVGID_5_"  overflow="visible"/>
			</clipPath>
			<g clip-path="url(#SVGID_6_)">
				<path fill="#38A4DD" d="M160.269,38.025l-5.996,6.01c0.151-0.604,0.226-1.269,0.222-1.965c-0.003-0.774-0.069-1.455-0.21-2.058
					l5.995-6.01c0.141,0.603,0.207,1.284,0.21,2.058C160.495,36.757,160.42,37.422,160.269,38.025"/>
			</g>
		</g>
		<g enable-background="new    ">
			<defs>
				<path id="SVGID_7_" enable-background="new    " d="M138.869,12.956l5.996-6.01c-0.947,0.949-1.7,2.052-2.26,3.326
					c-0.674,1.516-1.022,3.203-1.012,5.028c0.009,1.919,0.358,3.589,1.045,5.028c0.672,1.439,1.591,2.708,2.741,3.807
					c1.134,1.097,2.455,2.057,3.959,2.861s3.086,1.516,4.744,2.15c1.395,0.557,2.512,1.083,3.35,1.593
					c0.838,0.511,1.49,1.022,1.941,1.563c0.451,0.525,0.748,1.098,0.906,1.702l-5.995,6.01c-0.158-0.603-0.455-1.176-0.906-1.701
					c-0.452-0.541-1.103-1.053-1.941-1.563s-1.956-1.036-3.35-1.593c-1.658-0.635-3.239-1.346-4.744-2.15
					c-1.505-0.805-2.825-1.764-3.96-2.862c-1.149-1.098-2.069-2.367-2.741-3.807c-0.687-1.438-1.037-3.109-1.045-5.028
					c-0.009-1.825,0.339-3.511,1.012-5.027C137.169,15.007,137.922,13.904,138.869,12.956z"/>
			</defs>
			<clipPath id="SVGID_8_">
				<use xlink:href="#SVGID_7_"  overflow="visible"/>
			</clipPath>
			<g clip-path="url(#SVGID_8_)">
				<path fill="#38A4DD" d="M160.28,34.003l-5.995,6.01c-0.158-0.603-0.455-1.176-0.906-1.701c-0.452-0.541-1.103-1.053-1.941-1.563
					s-1.956-1.036-3.35-1.593c-1.658-0.635-3.239-1.346-4.744-2.15c-1.505-0.805-2.825-1.764-3.96-2.862
					c-1.149-1.098-2.069-2.367-2.741-3.807c-0.687-1.438-1.037-3.109-1.045-5.028c-0.009-1.825,0.339-3.511,1.012-5.027
					c0.561-1.274,1.313-2.377,2.26-3.326l5.996-6.01c-0.947,0.949-1.7,2.052-2.26,3.326c-0.674,1.516-1.022,3.203-1.012,5.028
					c0.009,1.919,0.358,3.589,1.045,5.028c0.672,1.439,1.591,2.708,2.741,3.807c1.134,1.097,2.455,2.057,3.959,2.861
					s3.086,1.516,4.744,2.15c1.395,0.557,2.512,1.083,3.35,1.593c0.838,0.511,1.49,1.022,1.941,1.563
					C159.825,32.827,160.122,33.399,160.28,34.003"/>
			</g>
		</g>
		<g enable-background="new    ">
			<defs>
				<path id="SVGID_9_" enable-background="new    " d="M159.289,39.769l-5.994,6.011c0.063-0.063,0.124-0.129,0.181-0.197
					c0.371-0.433,0.63-0.944,0.798-1.547l5.996-6.01c-0.167,0.604-0.428,1.114-0.798,1.547
					C159.413,39.641,159.354,39.706,159.289,39.769z"/>
			</defs>
			<clipPath id="SVGID_10_">
				<use xlink:href="#SVGID_9_"  overflow="visible"/>
			</clipPath>
			<g clip-path="url(#SVGID_10_)" enable-background="new    ">
				<path fill="#6C8A9A" d="M159.289,39.769l-5.994,6.011c0.063-0.063,0.124-0.129,0.181-0.197c0.371-0.433,0.63-0.944,0.798-1.547
					l5.996-6.01c-0.167,0.604-0.428,1.114-0.798,1.547C159.413,39.641,159.354,39.706,159.289,39.769"/>
			</g>
		</g>
		<g enable-background="new    ">
			<defs>
				<path id="SVGID_11_" enable-background="new    " d="M166.277,44.548l-5.996,6.011c-0.151,0.15-0.306,0.297-0.466,0.438
					c-1.17,1.036-2.589,1.825-4.258,2.383c-1.667,0.557-3.554,0.835-5.658,0.835c-1.888,0-3.745-0.294-5.574-0.866
					c-1.828-0.573-3.457-1.456-4.886-2.646c-1.445-1.175-2.597-2.677-3.487-4.502c-0.891-1.809-1.334-3.959-1.347-6.466l5.996-6.01
					c0.012,2.506,0.456,4.656,1.348,6.466c0.89,1.826,2.042,3.326,3.486,4.502c1.429,1.192,3.059,2.074,4.887,2.646
					c1.828,0.573,3.686,0.867,5.574,0.867c2.104,0,3.989-0.278,5.657-0.835s3.088-1.346,4.259-2.383
					C165.97,44.845,166.126,44.699,166.277,44.548z"/>
			</defs>
			<clipPath id="SVGID_12_">
				<use xlink:href="#SVGID_11_"  overflow="visible"/>
			</clipPath>
			<g clip-path="url(#SVGID_12_)">
				<path fill="#0277BD" d="M166.277,44.548l-5.996,6.011c-0.151,0.15-0.306,0.297-0.466,0.438c-1.17,1.036-2.589,1.825-4.258,2.383
					c-1.667,0.557-3.554,0.835-5.658,0.835c-1.888,0-3.745-0.294-5.574-0.866c-1.828-0.573-3.457-1.456-4.886-2.646
					c-1.445-1.175-2.597-2.677-3.487-4.502c-0.891-1.809-1.334-3.959-1.347-6.466l5.996-6.01c0.012,2.506,0.456,4.656,1.348,6.466
					c0.89,1.826,2.042,3.326,3.486,4.502c1.429,1.192,3.059,2.074,4.887,2.646c1.828,0.573,3.686,0.867,5.574,0.867
					c2.104,0,3.989-0.278,5.657-0.835s3.088-1.346,4.259-2.383C165.97,44.845,166.126,44.699,166.277,44.548"/>
			</g>
		</g>
		<g>
			<path fill="#84D2F6" d="M155.502,3c2.105,0,4.024,0.339,5.729,1.021c1.706,0.666,3.164,1.609,4.362,2.8
				c1.211,1.207,2.132,2.63,2.79,4.287c0.658,1.67,0.976,3.496,0.986,5.492h-8.85c-0.004-0.929-0.102-1.779-0.292-2.553
				c-0.205-0.774-0.501-1.438-0.922-1.995c-0.42-0.558-0.949-0.99-1.6-1.3c-0.635-0.311-1.41-0.464-2.323-0.464
				c-0.852,0-1.578,0.124-2.195,0.387c-0.602,0.263-1.111,0.618-1.511,1.083c-0.4,0.448-0.706,0.99-0.905,1.609
				c-0.198,0.618-0.288,1.284-0.284,1.995c0.004,0.728,0.161,1.377,0.473,1.966c0.313,0.587,0.764,1.128,1.339,1.624
				c0.575,0.51,1.273,0.974,2.095,1.424c0.807,0.447,1.722,0.881,2.699,1.298c2.061,0.743,3.86,1.578,5.396,2.476
				c1.535,0.913,2.824,1.934,3.851,3.079c1.043,1.16,1.807,2.444,2.324,3.883c0.502,1.454,0.758,3.079,0.767,4.888
				c0.009,1.935-0.292,3.652-0.918,5.167c-0.626,1.517-1.534,2.785-2.704,3.822c-1.171,1.037-2.591,1.826-4.259,2.383
				s-3.554,0.835-5.657,0.835c-1.888,0-3.746-0.293-5.574-0.867c-1.828-0.572-3.458-1.454-4.887-2.646
				c-1.444-1.176-2.596-2.676-3.486-4.502c-0.892-1.81-1.336-3.959-1.348-6.466h8.911c0.007,1.33,0.151,2.459,0.419,3.387
				c0.267,0.928,0.657,1.687,1.201,2.258c0.53,0.573,1.197,0.976,1.988,1.239c0.79,0.247,1.703,0.371,2.739,0.371
				c0.851,0,1.577-0.124,2.164-0.371c0.603-0.263,1.081-0.604,1.449-1.037c0.37-0.433,0.63-0.944,0.798-1.547
				c0.151-0.603,0.226-1.269,0.222-1.965c-0.004-0.774-0.069-1.455-0.21-2.058c-0.158-0.604-0.455-1.176-0.906-1.702
				c-0.452-0.541-1.104-1.052-1.941-1.563c-0.838-0.51-1.955-1.036-3.35-1.593c-1.658-0.634-3.239-1.346-4.744-2.15
				s-2.825-1.764-3.959-2.861c-1.15-1.099-2.069-2.367-2.741-3.807c-0.687-1.439-1.036-3.109-1.045-5.028
				c-0.01-1.825,0.338-3.512,1.012-5.028c0.672-1.532,1.626-2.816,2.859-3.884c1.232-1.068,2.697-1.902,4.412-2.49
				C151.575,3.294,153.445,3,155.502,3z"/>
		</g>
	</g>
</g>
<g>
	<g enable-background="new    ">
		<g enable-background="new    ">
			<defs>
				<path id="SVGID_13_" enable-background="new    " d="M198.444,20.837l-5.996,6.01c0.197-0.789,0.302-1.656,0.297-2.614
					c-0.005-0.944-0.118-1.842-0.323-2.708c-0.205-0.867-0.519-1.64-0.955-2.305c-0.437-0.667-0.996-1.192-1.679-1.595
					c-0.667-0.402-1.472-0.603-2.399-0.603l5.995-6.01c0.929,0,1.734,0.202,2.401,0.603c0.683,0.403,1.242,0.929,1.679,1.594
					s0.749,1.439,0.955,2.306c0.205,0.866,0.318,1.764,0.323,2.708C198.745,19.181,198.642,20.049,198.444,20.837z"/>
			</defs>
			<clipPath id="SVGID_14_">
				<use xlink:href="#SVGID_13_"  overflow="visible"/>
			</clipPath>
			<g clip-path="url(#SVGID_14_)">
				<path fill="#38A4DD" d="M198.444,20.837l-5.996,6.01c0.197-0.789,0.302-1.656,0.297-2.614c-0.005-0.944-0.118-1.842-0.323-2.708
					c-0.205-0.867-0.519-1.64-0.955-2.305c-0.437-0.667-0.996-1.192-1.679-1.595c-0.667-0.402-1.472-0.603-2.399-0.603l5.995-6.01
					c0.929,0,1.734,0.202,2.401,0.603c0.683,0.403,1.242,0.929,1.679,1.594s0.749,1.439,0.955,2.306
					c0.205,0.866,0.318,1.764,0.323,2.708C198.745,19.181,198.642,20.049,198.444,20.837"/>
			</g>
		</g>
		<g>
			<polygon fill="#1B87C9" points="193.383,11.013 187.389,17.023 181.277,17.023 187.272,11.013 			"/>
		</g>
		<g enable-background="new    ">
			<defs>
				<path id="SVGID_15_" enable-background="new    " d="M197.114,23.352l-5.996,6.01c0.142-0.142,0.274-0.295,0.397-0.458
					c0.429-0.572,0.736-1.253,0.933-2.057l5.996-6.01c-0.197,0.805-0.503,1.485-0.934,2.057
					C197.388,23.057,197.256,23.21,197.114,23.352z"/>
			</defs>
			<clipPath id="SVGID_16_">
				<use xlink:href="#SVGID_15_"  overflow="visible"/>
			</clipPath>
			<g clip-path="url(#SVGID_16_)">
				<path fill="#38A4DD" d="M197.114,23.352l-5.996,6.01c0.142-0.142,0.274-0.295,0.397-0.458c0.429-0.572,0.736-1.253,0.933-2.057
					l5.996-6.01c-0.197,0.805-0.503,1.485-0.934,2.057C197.388,23.057,197.256,23.21,197.114,23.352"/>
			</g>
		</g>
		<g enable-background="new    ">
			<defs>
				<path id="SVGID_17_" enable-background="new    " d="M204,28.313l-5.995,6.01c-0.015,0.014-0.03,0.029-0.043,0.042
					c-1.232,1.207-2.728,2.135-4.488,2.785c-1.776,0.665-3.771,0.991-5.982,0.991l5.996-6.011c2.211,0,4.207-0.325,5.982-0.991
					c1.76-0.65,3.257-1.578,4.487-2.784C203.971,28.342,203.986,28.327,204,28.313z"/>
			</defs>
			<clipPath id="SVGID_18_">
				<use xlink:href="#SVGID_17_"  overflow="visible"/>
			</clipPath>
			<g clip-path="url(#SVGID_18_)">
				<path fill="#00579B" d="M204,28.313l-5.995,6.01c-0.015,0.014-0.03,0.029-0.043,0.042c-1.232,1.207-2.728,2.135-4.488,2.785
					c-1.776,0.665-3.771,0.991-5.982,0.991l5.996-6.011c2.211,0,4.207-0.325,5.982-0.991c1.76-0.65,3.257-1.578,4.487-2.784
					C203.971,28.342,203.986,28.327,204,28.313"/>
			</g>
		</g>
		<g>
			<polygon fill="#00579B" points="193.487,32.131 187.492,38.142 181.38,38.142 187.375,32.131 			"/>
		</g>
		<g>
			<polygon fill="#38A4DD" points="178.571,47.602 172.575,53.612 172.36,9.612 178.356,3.602 			"/>
		</g>
		<g>
			<polygon fill="#0277BD" points="187.451,47.602 181.455,53.612 172.575,53.612 178.571,47.602 			"/>
		</g>
		<g>
			<path fill="#B5E4FA" d="M206.694,12.359c0.675,1.78,1.009,3.713,1.019,5.817c0.011,2.136-0.304,4.054-0.961,5.786
				c-0.642,1.717-1.578,3.188-2.795,4.394c-1.23,1.207-2.727,2.134-4.487,2.784c-1.775,0.666-3.771,0.991-5.982,0.991h-6.112
				l0.076,15.471h-8.88l-0.214-44h14.991c2.243,0,4.24,0.372,6.007,1.084c1.767,0.727,3.258,1.748,4.501,3.048
				C205.085,9.034,206.036,10.564,206.694,12.359z M198.444,20.837c0.198-0.788,0.301-1.656,0.297-2.614
				c-0.005-0.944-0.118-1.842-0.323-2.708c-0.206-0.867-0.518-1.641-0.955-2.306s-0.996-1.191-1.679-1.594
				c-0.667-0.401-1.472-0.603-2.401-0.603h-6.111l0.067,13.707h6.111c0.927,0,1.731-0.155,2.395-0.479
				c0.679-0.325,1.234-0.773,1.664-1.346C197.941,22.323,198.247,21.642,198.444,20.837"/>
		</g>
	</g>
</g>
<g>
	<g enable-background="new    ">
		<g>
			<polygon fill="#0277BD" points="241.988,11.013 235.993,17.023 219.671,17.023 225.666,11.013 			"/>
		</g>
		<g>
			<polygon fill="#0277BD" points="239.583,28.557 233.588,34.567 219.756,34.567 225.752,28.557 			"/>
		</g>
		<g>
			<polygon fill="#D5EFF8" points="241.952,3.602 241.988,11.013 225.666,11.013 225.717,21.41 239.548,21.41 239.583,28.557 
				225.752,28.557 225.808,40.222 242.178,40.222 242.214,47.602 216.965,47.602 216.751,3.602 			"/>
		</g>
		<g>
			<polygon fill="#0277BD" points="242.214,47.602 236.218,53.612 210.97,53.612 216.965,47.602 			"/>
		</g>
		<g>
			<polygon fill="#38A4DD" points="216.965,47.602 210.97,53.612 210.755,9.612 216.751,3.602 			"/>
		</g>
	</g>
</g>
<g>
	<g enable-background="new    ">
		<g>
			<polygon fill="#38A4DD" points="269.465,31.188 263.469,37.198 259.277,21.526 265.273,15.516 			"/>
		</g>
		<g>
			<polygon fill="#0277BD" points="283.359,47.602 277.364,53.612 267.865,53.612 273.861,47.602 			"/>
		</g>
		<g>
			<polygon fill="#38A4DD" points="273.861,47.602 267.865,53.612 265.47,44.608 271.465,38.599 			"/>
		</g>
		<g>
			<polygon fill="#00579B" points="271.465,38.599 265.47,44.608 253.356,44.608 259.352,38.599 			"/>
		</g>
		<g>
			<polygon fill="#00579B" points="257.029,47.602 251.033,53.612 241.644,53.612 247.639,47.602 			"/>
		</g>
		<g>
			<polygon fill="#38A4DD" points="247.639,47.602 241.644,53.612 255.182,9.612 261.177,3.602 			"/>
		</g>
		<g>
			<path fill="#B5E4FA" d="M269.299,3.602l14.06,44h-9.498l-2.396-9.003h-12.113l-2.323,9.003h-9.39l13.539-44H269.299z
				 M261.249,31.188h8.216l-4.192-15.672L261.249,31.188"/>
		</g>
	</g>
</g>
<g>
	<g enable-background="new    ">
		<g>
			<polygon fill="#38A4DD" points="302.205,18.053 296.209,24.062 304.323,9.612 310.317,3.602 			"/>
		</g>
		<g>
			<polygon fill="#38A4DD" points="299.413,22.787 293.417,28.797 296.209,24.062 302.205,18.053 			"/>
		</g>
		<g>
			<polygon fill="#38A4DD" points="311.09,47.602 305.094,53.612 296.966,36.625 302.962,30.615 			"/>
		</g>
		<g>
			<polygon fill="#00579B" points="321.625,47.602 315.63,53.612 305.094,53.612 311.09,47.602 			"/>
		</g>
		<g>
			<polygon fill="#0277BD" points="299.533,47.602 293.538,53.612 284.657,53.612 290.652,47.602 			"/>
		</g>
		<g>
			<polygon fill="#84D2F6" points="308.695,22.94 321.625,47.602 311.09,47.602 302.962,30.615 299.472,35.024 299.533,47.602 
				290.652,47.602 290.438,3.602 299.319,3.602 299.413,22.787 302.205,18.053 310.317,3.602 321.209,3.602 			"/>
		</g>
		<g>
			<polygon fill="#38A4DD" points="290.652,47.602 284.657,53.612 284.444,9.612 290.438,3.602 			"/>
		</g>
	</g>
</g>
<g>
	<g enable-background="new    ">
		<g>
			<polygon fill="#0277BD" points="353.092,11.013 347.096,17.023 330.774,17.023 336.77,11.013 			"/>
		</g>
		<g>
			<polygon fill="#00579B" points="350.702,28.557 344.706,34.567 330.859,34.567 336.854,28.557 			"/>
		</g>
		<g>
			<polygon fill="#B5E4FA" points="353.055,3.602 353.092,11.013 336.77,11.013 336.82,21.41 350.666,21.41 350.702,28.557 
				336.854,28.557 336.912,40.222 353.296,40.222 353.332,47.602 328.067,47.602 327.854,3.602 			"/>
		</g>
		<g>
			<polygon fill="#00579B" points="353.332,47.602 347.337,53.612 322.072,53.612 328.067,47.602 			"/>
		</g>
		<g>
			<polygon fill="#38A4DD" points="328.067,47.602 322.072,53.612 321.857,9.612 327.854,3.602 			"/>
		</g>
	</g>
</g>
<g>
	<g enable-background="new    ">
		<g>
			<polygon fill="#1B87C9" points="375.642,11.013 369.646,17.023 364.354,17.023 370.351,11.013 			"/>
		</g>
		<g enable-background="new    ">
			<defs>
				<path id="SVGID_19_" enable-background="new    " d="M379.44,22.354l-5.995,6.009c0.877-1.176,1.317-2.754,1.309-4.733
					c-0.006-1.005-0.104-1.919-0.293-2.723c-0.204-0.82-0.503-1.517-0.922-2.089c-0.421-0.573-0.951-1.021-1.602-1.331
					c-0.635-0.31-1.408-0.464-2.292-0.464l5.996-6.01c0.883,0,1.656,0.155,2.292,0.464c0.651,0.31,1.18,0.757,1.601,1.331
					c0.419,0.572,0.718,1.27,0.922,2.089c0.19,0.804,0.287,1.718,0.293,2.724C380.758,19.6,380.317,21.178,379.44,22.354z"/>
			</defs>
			<clipPath id="SVGID_20_">
				<use xlink:href="#SVGID_19_"  overflow="visible"/>
			</clipPath>
			<g clip-path="url(#SVGID_20_)" enable-background="new    ">
				<path fill="#38A4DD" d="M379.44,22.354l-5.995,6.009c0.877-1.176,1.317-2.754,1.309-4.733c-0.006-1.005-0.104-1.919-0.293-2.723
					c-0.204-0.82-0.503-1.517-0.922-2.089c-0.421-0.573-0.951-1.021-1.602-1.331c-0.635-0.31-1.408-0.464-2.292-0.464l5.996-6.01
					c0.883,0,1.656,0.155,2.292,0.464c0.651,0.31,1.18,0.757,1.601,1.331c0.419,0.572,0.718,1.27,0.922,2.089
					c0.19,0.804,0.287,1.718,0.293,2.724C380.758,19.6,380.317,21.178,379.44,22.354"/>
			</g>
		</g>
		<g enable-background="new    ">
			<defs>
				<path id="SVGID_21_" enable-background="new    " d="M379.038,22.821l-5.995,6.011c0.144-0.145,0.277-0.3,0.402-0.469
					l5.995-6.009C379.315,22.521,379.182,22.678,379.038,22.821z"/>
			</defs>
			<clipPath id="SVGID_22_">
				<use xlink:href="#SVGID_21_"  overflow="visible"/>
			</clipPath>
			<g clip-path="url(#SVGID_22_)" enable-background="new    ">
				<path fill="#6C8A9A" d="M379.038,22.821l-5.995,6.011c0.144-0.145,0.277-0.3,0.402-0.469l5.995-6.009
					C379.315,22.521,379.182,22.678,379.038,22.821"/>
			</g>
		</g>
		<g enable-background="new    ">
			<defs>
				<path id="SVGID_23_" enable-background="new    " d="M386.171,27.023l-5.995,6.01c-0.068,0.069-0.14,0.137-0.209,0.204
					c-0.785,0.758-1.663,1.392-2.651,1.933l5.996-6.01c0.987-0.542,1.865-1.176,2.65-1.934
					C386.033,27.16,386.104,27.092,386.171,27.023z"/>
			</defs>
			<clipPath id="SVGID_24_">
				<use xlink:href="#SVGID_23_"  overflow="visible"/>
			</clipPath>
			<g clip-path="url(#SVGID_24_)">
				<path fill="#B5E4FA" d="M386.171,27.023l-5.995,6.01c-0.068,0.069-0.14,0.137-0.209,0.204c-0.785,0.758-1.663,1.392-2.651,1.933
					l5.996-6.01c0.987-0.542,1.865-1.176,2.65-1.934C386.033,27.16,386.104,27.092,386.171,27.023"/>
			</g>
		</g>
		<g>
			<polygon fill="#00579B" points="374.859,31.527 368.864,37.538 364.456,37.538 370.451,31.527 			"/>
		</g>
		<g>
			<polygon fill="#38A4DD" points="381.56,47.602 375.565,53.612 368.864,37.538 374.859,31.527 			"/>
		</g>
		<g>
			<polygon fill="#00579B" points="391.105,47.602 385.109,53.612 375.565,53.612 381.56,47.602 			"/>
		</g>
		<g>
			<polygon fill="#38A4DD" points="361.649,47.602 355.653,53.612 355.439,9.612 361.435,3.602 			"/>
		</g>
		<g>
			<polygon fill="#0277BD" points="370.529,47.602 364.534,53.612 355.653,53.612 361.649,47.602 			"/>
		</g>
		<g>
			<path fill="#B5E4FA" d="M383.312,29.161l7.792,18.023l0.002,0.418h-9.546l-6.7-16.075h-4.408l0.078,16.075h-8.88l-0.215-44
				h14.171c2.197,0,4.164,0.295,5.883,0.868c1.721,0.572,3.195,1.422,4.392,2.536c1.211,1.115,2.131,2.506,2.773,4.146
				c0.643,1.656,0.962,3.574,0.972,5.756c0.008,1.578-0.125,3.017-0.412,4.301c-0.288,1.284-0.7,2.413-1.252,3.419
				c-0.552,0.99-1.213,1.856-1.999,2.599C385.177,27.985,384.299,28.619,383.312,29.161z M379.44,22.354
				c0.877-1.176,1.317-2.754,1.309-4.734c-0.006-1.006-0.103-1.919-0.293-2.724c-0.204-0.819-0.503-1.517-0.922-2.089
				c-0.421-0.573-0.949-1.021-1.601-1.331c-0.636-0.309-1.409-0.464-2.292-0.464h-5.291l0.064,13.104h5.043
				C377.236,24.117,378.563,23.529,379.44,22.354"/>
		</g>
	</g>
</g>
</svg>
